<svg version="1.1" id="Layer_1" xmlns="http://www.w3.org/2000/svg" xmlns:xlink="http://www.w3.org/1999/xlink" x="0px" y="0px"
	 width="100%" viewBox="0 0 420 420" enable-background="new 0 0 420 420" xml:space="preserve">
<path fill="#F0EAD2" opacity="1.000000" stroke="none" 
	d="
M189.000000,421.000000 
	C126.355721,421.000000 63.711445,421.000000 1.033583,421.000000 
	C1.033583,281.072418 1.033583,141.144821 1.033583,1.108610 
	C140.877502,1.108610 280.755096,1.108610 421.000000,1.108610 
	C421.000000,64.687630 421.000000,128.375961 420.531342,192.531845 
	C345.069977,192.999374 270.077209,193.040619 195.084778,192.901337 
	C190.362274,192.892578 188.869354,194.069962 188.892059,198.960342 
	C189.083923,240.288757 189.007141,281.618439 188.654343,322.917480 
	C159.639557,309.969666 142.073517,287.339081 133.354996,257.894714 
	C123.537621,224.739395 123.965019,191.350616 133.407196,157.961273 
	C144.336197,119.314201 175.336838,92.013779 215.273865,86.871529 
	C215.498779,86.886093 215.925568,86.741066 216.270844,86.796478 
	C217.080978,86.834610 217.545837,86.817314 218.404572,86.908913 
	C220.431030,87.334923 222.060608,87.668663 223.696686,87.966637 
	C243.039795,91.489494 260.046661,99.639297 273.943085,113.716179 
	C282.997223,122.887863 289.165680,133.853714 292.862030,146.171341 
	C293.701416,148.968414 294.954163,150.164459 298.065247,150.076172 
	C307.383026,149.811813 316.710632,149.893570 326.497101,149.903168 
	C342.043945,149.934174 357.128082,149.902222 372.655151,149.925476 
	C383.522919,149.980667 393.947754,149.980667 404.598389,149.980667 
	C400.015381,116.488892 386.605591,87.898010 363.415619,64.163857 
	C338.894043,39.066792 308.764313,24.384878 274.490967,18.081532 
	C257.801971,15.012186 240.946518,13.192206 223.457458,14.973406 
	C218.340347,14.952443 213.682800,14.968209 208.678726,14.767496 
	C186.413742,13.858021 164.723984,15.759516 143.714447,22.139162 
	C82.220657,40.812061 43.146259,81.846283 25.056566,143.074722 
	C15.786378,174.451660 14.353842,206.548920 17.786858,239.013382 
	C20.801237,267.519012 28.433304,294.491821 42.786842,319.413788 
	C61.481579,351.873383 88.104233,375.293976 122.868874,389.346069 
	C144.075607,397.917969 166.251083,401.902466 189.004669,403.502899 
	C189.001495,409.645660 189.000748,415.322845 189.000000,421.000000 
z"/>
<path fill="#FDF9F7" opacity="1.000000" stroke="none" 
	d="
M189.011047,322.947723 
	C189.007141,281.618439 189.083923,240.288757 188.892059,198.960342 
	C188.869354,194.069962 190.362274,192.892578 195.084778,192.901337 
	C270.077209,193.040619 345.069977,192.999374 420.531342,192.999695 
	C421.000000,268.927673 421.000000,344.855377 421.000000,421.000000 
	C343.979248,421.000000 266.958282,421.000000 189.468658,421.000000 
	C189.000748,415.322845 189.001495,409.645660 189.468048,403.430389 
	C196.262665,402.765228 202.591461,402.638184 209.347427,402.595215 
	C211.221634,402.655853 212.668686,402.632416 214.463287,402.715027 
	C215.538849,402.784241 216.266876,402.747375 217.459763,402.772095 
	C249.233780,404.036774 279.824310,400.535614 308.865021,388.063446 
	C356.089661,367.781891 387.608002,333.353149 401.822205,283.643311 
	C403.256744,278.626495 404.060120,273.429199 405.372620,267.307098 
	C394.016479,267.307098 383.558136,267.307098 372.625061,267.238678 
	C348.532623,267.229309 324.914246,267.395752 301.297943,267.240601 
	C297.406433,267.215057 295.957642,268.530518 294.735962,272.051239 
	C288.959900,288.697021 278.902069,302.336273 264.562714,312.613007 
	C250.929108,322.383881 235.495804,327.775818 218.648483,330.397522 
	C217.492752,330.426300 216.722580,330.489929 215.549500,330.401123 
	C206.494415,327.999359 197.842239,325.750092 189.154663,323.359497 
	C189.119278,323.218201 189.011047,322.947723 189.011047,322.947723 
z"/>
<path fill="#8C5863" opacity="1.000000" stroke="none" 
	d="
M214.115738,402.608948 
	C212.668686,402.632416 211.221634,402.655853 209.029449,402.415131 
	C201.741989,401.106262 195.190765,400.114197 188.658936,399.007629 
	C163.633347,394.767975 140.625900,385.303314 120.250221,370.347046 
	C97.512146,353.656708 80.220329,332.308594 68.094818,306.576965 
	C54.357887,277.425781 48.682571,246.593430 48.283283,214.833801 
	C48.071716,198.005875 49.961136,181.043808 52.219406,164.320190 
	C54.950764,144.093079 61.557827,124.777969 71.258446,106.835503 
	C83.152451,84.836082 98.797134,65.815338 118.856964,50.503429 
	C138.360840,35.615898 160.055054,25.627476 183.819794,20.015663 
	C192.153000,18.047853 200.619583,16.644876 209.025269,14.983976 
	C213.682800,14.968209 218.340347,14.952443 223.784058,15.221346 
	C230.633484,16.348392 236.757721,16.885309 242.750275,18.081717 
	C288.642029,27.243958 326.068207,49.482929 351.377380,89.723251 
	C362.917938,108.072121 370.139893,128.133682 372.212250,149.870270 
	C357.128082,149.902222 342.043945,149.934174 326.430542,149.542877 
	C325.479004,147.859100 325.044678,146.602478 324.636200,145.337494 
	C318.357269,125.891769 306.598175,110.851120 288.988770,100.311066 
	C276.954224,93.107834 264.024994,88.382126 250.158035,87.176743 
	C239.511795,86.251312 228.731415,86.868736 218.010696,86.800018 
	C217.545837,86.817314 217.080978,86.834610 216.153320,86.634117 
	C215.484116,86.233421 215.245819,86.114182 214.508484,86.061279 
	C203.245071,86.381134 192.331131,85.792557 181.673492,87.176956 
	C141.797974,92.356712 113.510246,119.366188 101.985558,156.302200 
	C94.300896,180.931152 92.656677,206.049789 95.871201,231.658524 
	C98.943100,256.131073 106.392784,278.762177 122.601768,297.714386 
	C139.977798,318.031128 162.304413,328.986969 189.441406,330.951508 
	C198.564285,330.850525 207.258347,330.702057 215.952393,330.553558 
	C216.722580,330.489929 217.492752,330.426300 218.987549,330.581909 
	C224.337784,331.190247 228.980011,332.031006 233.585129,331.861755 
	C240.362259,331.612762 247.188904,331.074310 253.860336,329.898346 
	C272.488190,326.614655 289.561523,319.879517 303.784363,306.811371 
	C314.317688,297.133209 321.930786,285.636383 326.802612,272.281952 
	C327.908081,269.251801 329.351013,267.870789 332.892700,267.943573 
	C346.218658,268.217316 359.552795,268.094330 372.923462,268.521729 
	C368.767334,282.372467 365.650391,296.282745 360.139954,309.169556 
	C350.206604,332.399872 334.212860,351.224091 314.057587,366.559814 
	C285.358398,388.396454 252.807861,399.480286 216.768738,401.985229 
	C215.672852,402.190857 214.894287,402.399902 214.115738,402.608948 
z"/>
<path fill="#AF6D72" opacity="1.000000" stroke="none" 
	d="
M208.678726,14.767497 
	C200.619583,16.644876 192.153000,18.047853 183.819794,20.015663 
	C160.055054,25.627476 138.360840,35.615898 118.856964,50.503429 
	C98.797134,65.815338 83.152451,84.836082 71.258446,106.835503 
	C61.557827,124.777969 54.950764,144.093079 52.219406,164.320190 
	C49.961136,181.043808 48.071716,198.005875 48.283283,214.833801 
	C48.682571,246.593430 54.357887,277.425781 68.094818,306.576965 
	C80.220329,332.308594 97.512146,353.656708 120.250221,370.347046 
	C140.625900,385.303314 163.633347,394.767975 188.658936,399.007629 
	C195.190765,400.114197 201.741989,401.106262 208.602295,402.331055 
	C202.591461,402.638184 196.262665,402.765228 189.470459,402.964783 
	C166.251083,401.902466 144.075607,397.917969 122.868874,389.346069 
	C88.104233,375.293976 61.481579,351.873383 42.786842,319.413788 
	C28.433304,294.491821 20.801237,267.519012 17.786858,239.013382 
	C14.353842,206.548920 15.786378,174.451660 25.056566,143.074722 
	C43.146259,81.846283 82.220657,40.812061 143.714447,22.139162 
	C164.723984,15.759516 186.413742,13.858021 208.678726,14.767497 
z"/>
<path fill="#669993" opacity="1.000000" stroke="none" 
	d="
M189.012558,330.903992 
	C162.304413,328.986969 139.977798,318.031128 122.601768,297.714386 
	C106.392784,278.762177 98.943100,256.131073 95.871201,231.658524 
	C92.656677,206.049789 94.300896,180.931152 101.985558,156.302200 
	C113.510246,119.366188 141.797974,92.356712 181.673492,87.176956 
	C192.331131,85.792557 203.245071,86.381134 214.527985,86.260460 
	C215.014633,86.456985 215.048950,86.856964 215.048950,86.856964 
	C175.336838,92.013779 144.336197,119.314201 133.407196,157.961273 
	C123.965019,191.350616 123.537621,224.739395 133.354996,257.894714 
	C142.073517,287.339081 159.639557,309.969666 188.654343,322.917480 
	C189.011047,322.947723 189.119278,323.218201 189.105606,323.833313 
	C189.065475,326.600311 189.039017,328.752136 189.012558,330.903992 
z"/>
<path fill="#669993" opacity="1.000000" stroke="none" 
	d="
M372.655151,149.925476 
	C370.139893,128.133682 362.917938,108.072121 351.377380,89.723251 
	C326.068207,49.482929 288.642029,27.243958 242.750275,18.081717 
	C236.757721,16.885309 230.633484,16.348392 224.243637,15.258074 
	C240.946518,13.192206 257.801971,15.012186 274.490967,18.081532 
	C308.764313,24.384878 338.894043,39.066792 363.415619,64.163857 
	C386.605591,87.898010 400.015381,116.488892 404.598389,149.980667 
	C393.947754,149.980667 383.522919,149.980667 372.655151,149.925476 
z"/>
<path fill="#AF6D71" opacity="1.000000" stroke="none" 
	d="
M218.404572,86.908913 
	C228.731415,86.868736 239.511795,86.251312 250.158035,87.176743 
	C264.024994,88.382126 276.954224,93.107834 288.988770,100.311066 
	C306.598175,110.851120 318.357269,125.891769 324.636200,145.337494 
	C325.044678,146.602478 325.479004,147.859100 325.967834,149.479919 
	C316.710632,149.893570 307.383026,149.811813 298.065247,150.076172 
	C294.954163,150.164459 293.701416,148.968414 292.862030,146.171341 
	C289.165680,133.853714 282.997223,122.887863 273.943085,113.716179 
	C260.046661,99.639297 243.039795,91.489494 223.696686,87.966637 
	C222.060608,87.668663 220.431030,87.334923 218.404572,86.908913 
z"/>
<path fill="#AF6D71" opacity="1.000000" stroke="none" 
	d="
M215.273865,86.871529 
	C215.048950,86.856964 215.014633,86.456985 214.995117,86.257805 
	C215.245819,86.114182 215.484116,86.233421 215.808044,86.578705 
	C215.925568,86.741066 215.498779,86.886093 215.273865,86.871529 
z"/>
<path fill="#699C9D" opacity="1.000000" stroke="none" 
	d="
M217.086060,401.988617 
	C252.807861,399.480286 285.358398,388.396454 314.057587,366.559814 
	C334.212860,351.224091 350.206604,332.399872 360.139954,309.169556 
	C365.650391,296.282745 368.767334,282.372467 372.983948,268.319641 
	C373.004791,267.715790 373.099823,267.307098 373.099823,267.307098 
	C383.558136,267.307098 394.016479,267.307098 405.372620,267.307098 
	C404.060120,273.429199 403.256744,278.626495 401.822205,283.643311 
	C387.608002,333.353149 356.089661,367.781891 308.865021,388.063446 
	C279.824310,400.535614 249.233780,404.036774 217.476791,402.590942 
	C217.028946,402.348175 217.086060,401.988617 217.086060,401.988617 
z"/>
<path fill="#B3737D" opacity="1.000000" stroke="none" 
	d="
M372.625061,267.238678 
	C373.099823,267.307098 373.004791,267.715790 372.944336,267.917908 
	C359.552795,268.094330 346.218658,268.217316 332.892700,267.943573 
	C329.351013,267.870789 327.908081,269.251801 326.802612,272.281952 
	C321.930786,285.636383 314.317688,297.133209 303.784363,306.811371 
	C289.561523,319.879517 272.488190,326.614655 253.860336,329.898346 
	C247.188904,331.074310 240.362259,331.612762 233.585129,331.861755 
	C228.980011,332.031006 224.337784,331.190247 219.373077,330.616760 
	C235.495804,327.775818 250.929108,322.383881 264.562714,312.613007 
	C278.902069,302.336273 288.959900,288.697021 294.735962,272.051239 
	C295.957642,268.530518 297.406433,267.215057 301.297943,267.240601 
	C324.914246,267.395752 348.532623,267.229309 372.625061,267.238678 
z"/>
<path fill="#6F9D9E" opacity="1.000000" stroke="none" 
	d="
M189.441406,330.951508 
	C189.039017,328.752136 189.065475,326.600311 189.140991,323.974640 
	C197.842239,325.750092 206.494415,327.999359 215.549500,330.401123 
	C207.258347,330.702057 198.564285,330.850525 189.441406,330.951508 
z"/>
<path fill="#AF6D72" opacity="1.000000" stroke="none" 
	d="
M216.768738,401.985229 
	C217.086060,401.988617 217.028946,402.348175 217.011917,402.529358 
	C216.266876,402.747375 215.538849,402.784241 214.463287,402.715027 
	C214.894287,402.399902 215.672852,402.190857 216.768738,401.985229 
z"/>
</svg>