<?xml version="1.0" encoding="UTF-8"?><svg id="a" xmlns="http://www.w3.org/2000/svg" viewBox="0 0 150 150"><defs><style>.b{fill:#ff4539;}.c{fill:none;}</style></defs><path class="c" d="M0,0H150V150H0V0Z"/><path class="b" d="M25.55,78.37l-5.32,27.36H89.78c17.96-2.6,32.85-13.27,41.38-27.36H25.55Z"/><polygon class="b" points="13.91 138.29 13.9 138.31 13.9 138.32 51.74 138.32 51.74 138.31 51.74 138.29 57.07 110.93 19.22 110.93 13.91 138.29"/><path class="b" d="M133.95,73.17c3.97-8.4,5.81-18.16,4.69-27.36H31.88l-5.32,27.36h107.39Z"/><path class="b" d="M99.33,13.25H38.21l-5.32,27.36h104.79c-4.02-15.88-17.36-27.36-38.35-27.36Z"/></svg>